<?xml version="1.0" encoding="utf-8"?>
<!-- Uploaded to: SVG Repo, www.svgrepo.com, Generator: SVG Repo Mixer Tools -->
<svg width="800px" height="800px" viewBox="0 0 26.102 26.102" xmlns="http://www.w3.org/2000/svg">
  <g id="Group_713" data-name="Group 713" transform="translate(-149.9 -99.898)">
    <path id="Path_1493" data-name="Path 1493" d="M176,122a4.012,4.012,0,0,1-4,4,3.591,3.591,0,0,1-2.4-1.1,3.079,3.079,0,0,0-.6-.6l-7.8-7.8a8.675,8.675,0,0,1-2.8.5,8.493,8.493,0,0,1-8.5-8.5,7.526,7.526,0,0,1,1.6-4.7l5.2,5.2,2.2-2.2-5.1-5.1a7.6,7.6,0,0,1,4.6-1.8,8.511,8.511,0,0,1,4.7,15.6l7.3,7.3c.2.2,1.1,1.1,1.5,1.1a2.006,2.006,0,0,0,2-2,1.922,1.922,0,0,0-.4-1.2l-.5-.5-4.8-4.8a.99.99,0,1,1,1.4-1.4l4.8,4.8.5.5A4.049,4.049,0,0,1,176,122Zm-11-13.5a6.487,6.487,0,0,0-6.5-6.5,2.2,2.2,0,0,0-.8.1l3.3,3.3a2.657,2.657,0,0,1,0,3.7l-1.9,1.9a2.657,2.657,0,0,1-3.7,0l-3.3-3.3c0,.3-.1.5-.1.8a6.5,6.5,0,0,0,13,0Z" fill="#444"/>
  </g>
</svg>